<svg width="300" height="80" viewBox="0 0 300 80" xmlns="http://www.w3.org/2000/svg">
  <!-- Left Bracket -->
  <path d="M 15 15 Q 5 40 15 65" stroke="#c07af1" stroke-width="4" fill="none" stroke-linecap="round"/>
  <path d="M 15 15 L 25 15" stroke="#c07af1" stroke-width="4" stroke-linecap="round"/>
  <path d="M 15 65 L 25 65" stroke="#c07af1" stroke-width="4" stroke-linecap="round"/>
  
  <!-- Right Bracket -->
  <path d="M 65 15 Q 75 40 65 65" stroke="#e7ac20" stroke-width="4" fill="none" stroke-linecap="round"/>
  <path d="M 65 15 L 55 15" stroke="#e7ac20" stroke-width="4" stroke-linecap="round"/>
  <path d="M 65 65 L 55 65" stroke="#e7ac20" stroke-width="4" stroke-linecap="round"/>
  
  <!-- Connection -->
  <line x1="30" y1="30" x2="50" y2="30" stroke="#efdffc" stroke-width="1.5" opacity="0.5"/>
  <line x1="30" y1="40" x2="50" y2="40" stroke="#efdffc" stroke-width="1.5" opacity="0.5"/>
  <line x1="30" y1="50" x2="50" y2="50" stroke="#efdffc" stroke-width="1.5" opacity="0.5"/>
  <circle cx="30" cy="30" r="2" fill="#c07af1"/>
  <circle cx="30" cy="40" r="2" fill="#c07af1"/>
  <circle cx="30" cy="50" r="2" fill="#c07af1"/>
  <circle cx="50" cy="30" r="2" fill="#e7ac20"/>
  <circle cx="50" cy="40" r="2" fill="#e7ac20"/>
  <circle cx="50" cy="50" r="2" fill="#e7ac20"/>
  
  <!-- Text -->
  <text x="90" y="35" font-family="Red Hat Mono, monospace" font-size="20" font-weight="700" fill="#c07af1">
    Pair Programming
  </text>
  <text x="90" y="55" font-family="Red Hat Mono, monospace" font-size="16" font-weight="500" fill="#e7ac20">
    with AI
  </text>
</svg>
